<svg id="Livello_1" data-name="Livello 1" xmlns="http://www.w3.org/2000/svg" viewBox="0 0 100 100"><defs><style>.cls-1,.cls-2{fill:#68d0de;}.cls-2{font-size:13px;font-family:Roboto-Regular, Roboto;}</style></defs><title>Icona</title><path class="cls-1" d="M47.64,40.31a18.2,18.2,0,1,1,18.2-18.2A18.21,18.21,0,0,1,47.64,40.31Zm0-35.19a17,17,0,1,0,17,17A17,17,0,0,0,47.64,5.12Z"/><path class="cls-1" d="M47.76,37.78a.52.52,0,0,1-.27-.07.59.59,0,0,1-.27-.8l2.17-4.34a.6.6,0,0,1,.54-.34h3.73V28.5a.6.6,0,0,1,.61-.6H58V24.4a.6.6,0,0,1,.33-.54l3.32-1.66-3.34-1.85a.61.61,0,0,1-.31-.53V16.08H54.27a.6.6,0,0,1-.61-.6V11.75H49.93a.6.6,0,0,1-.54-.34L47.22,7.07a.59.59,0,0,1,.27-.8.61.61,0,0,1,.81.26l2,4h4a.6.6,0,0,1,.6.6v3.74H58.6a.6.6,0,0,1,.61.6v4l4,2.23a.63.63,0,0,1,.31.54.62.62,0,0,1-.34.53l-4,2V28.5a.6.6,0,0,1-.61.6H54.87v3.74a.6.6,0,0,1-.6.6h-4l-2,4A.61.61,0,0,1,47.76,37.78Z"/><path class="cls-1" d="M47.64,37.9a.6.6,0,0,1-.54-.33l-2-4h-4a.6.6,0,0,1-.6-.6V29.22H36.79a.6.6,0,0,1-.6-.6V24.89l-4-2a.61.61,0,0,1,0-1.07l4-2.23v-4a.6.6,0,0,1,.6-.6h3.74V11.26a.6.6,0,0,1,.6-.6h4l2-4a.6.6,0,0,1,1.08.53L46,11.53a.61.61,0,0,1-.54.34H41.73V15.6a.6.6,0,0,1-.6.61H37.39v3.73a.61.61,0,0,1-.31.53l-3.34,1.85L37.06,24a.6.6,0,0,1,.33.54V28h3.74a.6.6,0,0,1,.6.6v3.73h3.74a.61.61,0,0,1,.54.34L48.18,37a.62.62,0,0,1-.27.81A.66.66,0,0,1,47.64,37.9Z"/><path class="cls-1" d="M47.64,52.12a3.5,3.5,0,1,1,3.49-3.49A3.5,3.5,0,0,1,47.64,52.12Zm0-5.78a2.29,2.29,0,1,0,2.29,2.29A2.28,2.28,0,0,0,47.64,46.34Z"/><path class="cls-1" d="M58.48,45.37A3.5,3.5,0,1,1,62,41.88,3.5,3.5,0,0,1,58.48,45.37Zm0-5.78a2.29,2.29,0,1,0,2.29,2.29A2.29,2.29,0,0,0,58.48,39.59Z"/><path class="cls-1" d="M37,45.61a3.5,3.5,0,1,1,3.5-3.49A3.49,3.49,0,0,1,37,45.61Zm0-5.78a2.29,2.29,0,1,0,2.29,2.29A2.29,2.29,0,0,0,37,39.83Z"/><path class="cls-1" d="M47.76,74.66a.61.61,0,0,1-.57-.4c-.2-.53-4.86-13.16-4.86-17.32,0-4.43,4-5.42,5.43-5.42s5.42,1,5.42,5.42c0,4.16-4.66,16.79-4.86,17.32A.59.59,0,0,1,47.76,74.66Zm0-21.94s-4.22.18-4.22,4.22c0,3.12,3,11.77,4.22,15.34C49,68.71,52,60.05,52,56.94,52,52.9,47.8,52.72,47.76,52.72Z"/><path class="cls-1" d="M58.6,67.67a.6.6,0,0,1-.56-.4c-.2-.53-4.86-13.16-4.86-17.32,0-4.43,4-5.42,5.42-5.42S64,45.52,64,50c0,4.16-4.66,16.79-4.86,17.32A.6.6,0,0,1,58.6,67.67Zm0-21.94s-4.21.18-4.21,4.22c0,3.12,3,11.77,4.21,15.34,1.27-3.57,4.22-12.23,4.22-15.34C62.82,45.91,58.65,45.73,58.6,45.73Z"/><path class="cls-1" d="M37.15,67.67a.59.59,0,0,1-.56-.4c-.2-.53-4.86-13.16-4.86-17.32,0-4.43,4-5.42,5.42-5.42s5.43,1,5.43,5.42c0,4.16-4.66,16.79-4.86,17.32A.61.61,0,0,1,37.15,67.67Zm0-21.94s-4.22.18-4.22,4.22c0,3.12,3,11.77,4.22,15.34,1.27-3.57,4.22-12.23,4.22-15.34C41.37,45.91,37.19,45.73,37.15,45.73Z"/><path class="cls-1" d="M37,39.83a.6.6,0,0,1-.6-.61V36.33a.6.6,0,0,1,1.2,0v2.89A.6.6,0,0,1,37,39.83Z"/><path class="cls-1" d="M47.64,46.34a.61.61,0,0,1-.61-.61V40a.61.61,0,0,1,1.21,0v5.78A.6.6,0,0,1,47.64,46.34Z"/><path class="cls-1" d="M58.48,39.59a.6.6,0,0,1-.6-.61V36.09a.61.61,0,0,1,1.21,0V39A.61.61,0,0,1,58.48,39.59Z"/><text class="cls-2" transform="translate(3.56 92.68)">Acchiappasogni</text></svg>