<svg id="Livello_1" data-name="Livello 1" xmlns="http://www.w3.org/2000/svg" viewBox="0 0 100 100"><defs><style>.cls-1,.cls-2{fill:#202e79;}.cls-2{font-size:13px;font-family:Roboto-Regular, Roboto;}</style></defs><title>Icona</title><path class="cls-1" d="M50,16.81h0a.6.6,0,0,1-.6-.6l0-10.49a.6.6,0,0,1,.6-.6h0a.62.62,0,0,1,.6.61l0,10.48A.6.6,0,0,1,50,16.81Z"/><path class="cls-1" d="M60.35,23.56h0a.6.6,0,0,1-.6-.6l0-10.49a.6.6,0,0,1,.6-.6h0a.61.61,0,0,1,.61.61L61,23A.6.6,0,0,1,60.35,23.56Z"/><path class="cls-1" d="M39.62,23.56h0A.6.6,0,0,1,39,23l0-10.49a.6.6,0,0,1,.6-.6h0a.6.6,0,0,1,.6.61l0,10.48A.6.6,0,0,1,39.62,23.56Z"/><path class="cls-1" d="M29.25,35.37h0a.6.6,0,0,1-.6-.6l0-10.49a.6.6,0,0,1,.6-.6h0a.62.62,0,0,1,.6.61l0,10.48A.6.6,0,0,1,29.25,35.37Z"/><path class="cls-1" d="M70.71,35.37h0a.6.6,0,0,1-.6-.6l0-10.49a.6.6,0,0,1,.6-.6h0a.62.62,0,0,1,.6.61l0,10.48A.6.6,0,0,1,70.71,35.37Z"/><path class="cls-1" d="M19.16,75.81a3.51,3.51,0,0,1-3.39-2.6l-1.25-4.65A3.52,3.52,0,0,1,17,64.26l7.15-1.93a.62.62,0,0,1,.32,1.19l-7.15,1.93a2.2,2.2,0,0,0-1.38,1.06,2.28,2.28,0,0,0-.23,1.73L17,72.89a2.27,2.27,0,0,0,2.79,1.61l25.73-6.94a.62.62,0,1,1,.32,1.19L20.07,75.69A3.56,3.56,0,0,1,19.16,75.81Z"/><path class="cls-1" d="M73.75,61.19A.62.62,0,0,1,73.59,60l8.7-2.41a2.29,2.29,0,0,0,1.62-2.79l-1.26-4.66a2.28,2.28,0,0,0-2.79-1.6L53.33,55.73A.61.61,0,1,1,53,54.55l26.53-7.22a3.52,3.52,0,0,1,4.3,2.47l1.25,4.66a3.49,3.49,0,0,1-.35,2.66,3.52,3.52,0,0,1-2.12,1.64l-8.7,2.41Z"/><path class="cls-1" d="M80.67,75.59a3.46,3.46,0,0,1-.84-.11L17.14,59.85A3.54,3.54,0,0,1,15,58.25a3.45,3.45,0,0,1-.39-2.64l.58.14-.58-.14,1.16-4.68A3.5,3.5,0,0,1,20,48.39L82.69,64a3.5,3.5,0,0,1,2.54,4.24l-1.17,4.68a3.5,3.5,0,0,1-3.39,2.65ZM19.16,49.49a2.32,2.32,0,0,0-2.23,1.73L15.76,55.9A2.28,2.28,0,0,0,16,57.63a2.25,2.25,0,0,0,1.4,1L80.12,74.32a2.3,2.3,0,0,0,2.77-1.67L84.06,68a2.24,2.24,0,0,0-.26-1.73,2.3,2.3,0,0,0-1.41-1L19.71,49.56A2.13,2.13,0,0,0,19.16,49.49Z"/><path class="cls-1" d="M49.86,52.25c-1.41,0-5.42-1-5.42-5.43,0-4.15,4.66-16.78,4.86-17.32a.58.58,0,0,1,.56-.39.61.61,0,0,1,.57.39c.19.54,4.85,13.17,4.85,17.32C55.28,51.25,51.27,52.25,49.86,52.25Zm0-20.76c-1.26,3.57-4.22,12.22-4.22,15.33,0,4,4.18,4.22,4.22,4.22s4.22-.18,4.22-4.22C54.08,43.71,51.13,35.06,49.86,31.49Z"/><path class="cls-1" d="M49.92,52.25c-1.9,0-9.58-1.36-9.58-7.65,0-6.06,8.66-24.49,9-25.27a.6.6,0,0,1,1.09,0c.37.78,9,19.21,9,25.27C59.49,50.89,51.82,52.25,49.92,52.25Zm0-31.23C48,25.25,41.55,39.66,41.55,44.6c0,2.29,1.21,4,3.62,5.23A12.66,12.66,0,0,0,49.92,51a12.71,12.71,0,0,0,4.75-1.21c2.4-1.18,3.62-2.94,3.62-5.23C58.29,39.66,51.85,25.25,49.92,21Z"/><path class="cls-1" d="M84.69,68.76l-.15,0-68-17.11a.6.6,0,1,1,.3-1.17l68,17.11a.6.6,0,0,1-.15,1.19Z"/><text class="cls-2" transform="translate(27.97 93.68)">Chibers</text></svg>