<svg id="Livello_1" data-name="Livello 1" xmlns="http://www.w3.org/2000/svg" viewBox="0 0 100 100"><defs><style>.cls-1,.cls-2{fill:#68d0de;}.cls-2{font-size:13px;font-family:Roboto-Regular, Roboto;}</style></defs><title>Icona</title><path class="cls-1" d="M50.76,38.31a.61.61,0,0,1-.13-.65l9.89-24.21a.6.6,0,1,1,1.11.46l-9.88,24.2a.6.6,0,0,1-.79.33A.63.63,0,0,1,50.76,38.31Z"/><path class="cls-1" d="M45.65,29.11a.55.55,0,0,1-.14-.22.6.6,0,0,1,.35-.77L69.27,19.3a.61.61,0,0,1,.78.36.6.6,0,0,1-.35.77L46.29,29.25A.62.62,0,0,1,45.65,29.11Z"/><path class="cls-1" d="M31.38,57.7l-7.16-7.16a.62.62,0,0,1,0-.86.61.61,0,0,1,.85,0l7.16,7.16a.6.6,0,0,1,0,.86A.61.61,0,0,1,31.38,57.7Z"/><path class="cls-1" d="M27.62,60.87a.52.52,0,0,1-.12-.17l-2.15-4.43-4.07-1.79a.64.64,0,0,1-.32-.82.62.62,0,0,1,.82-.32l4.28,1.89a.67.67,0,0,1,.31.29l2.25,4.64a.62.62,0,0,1-1,.71Z"/><path class="cls-1" d="M23.32,44.45a.61.61,0,0,1-.12-.68C23.44,43.25,29.08,31,32,28.08c3.13-3.13,6.67-1,7.67,0s3.13,4.54,0,7.67C36.75,38.69,24.52,44.33,24,44.57A.61.61,0,0,1,23.32,44.45ZM38.83,28.94s-3.11-2.86-6,0c-2.2,2.2-6.24,10.41-7.86,13.82,3.41-1.62,11.62-5.66,13.82-7.86C41.69,32.05,38.86,29,38.83,28.94Z"/><path class="cls-1" d="M39,28.94a.62.62,0,0,1,0-.86L43.09,24a.61.61,0,0,1,.86.86l-4.09,4.09A.62.62,0,0,1,39,28.94Z"/><path class="cls-1" d="M19.74,65.24l-3.06-3.07a3.48,3.48,0,0,1,0-4.94L45.35,28.55c-.54-1-2-3.83-2.68-4.83-1.19-1.83-1.16-3.6.08-4.84l8.68-9.36a3.51,3.51,0,0,1,4.93,0L61,12.93l.86-.87a3.51,3.51,0,0,1,5,0l3.06,3.07a3.49,3.49,0,0,1,.28,4.63L87.26,32.54l.06.06a3.48,3.48,0,0,1,0,4.94L66.7,58.17a3.5,3.5,0,0,1-4.94,0,.45.45,0,0,1-.1-.14L51.05,38.87,24.69,65.24A3.51,3.51,0,0,1,19.74,65.24ZM65.93,12.92a2.27,2.27,0,0,0-3.23,0l-1.24,1.23a.59.59,0,0,1-.78,0L55.6,10.42l-.06-.06a2.3,2.3,0,0,0-3.24,0l-8.68,9.36c-1.11,1.11-.44,2.58.07,3.35.82,1.27,2.85,5.15,2.94,5.31a.61.61,0,0,1-.11.71l-29,29a2.3,2.3,0,0,0,0,3.24l3.07,3.07a2.29,2.29,0,0,0,3.23,0L50.77,37.46a.6.6,0,0,1,.51-.18.59.59,0,0,1,.44.31l11,19.78a2.29,2.29,0,0,0,3.18,0L86.47,36.69a2.29,2.29,0,0,0,0-3.21L68.87,20.32a.6.6,0,0,1-.06-.91l.19-.19A2.3,2.3,0,0,0,69,16Z"/><text class="cls-2" transform="translate(20.61 92.68)">Conquista</text></svg>