<svg id="Livello_1" data-name="Livello 1" xmlns="http://www.w3.org/2000/svg" viewBox="0 0 100 100"><defs><style>.cls-1,.cls-2{fill:#202e79;}.cls-2{font-size:13px;font-family:Roboto-Regular, Roboto;}.cls-3{letter-spacing:-0.01em;}</style></defs><title>Icona</title><path class="cls-1" d="M84.37,75.91H67.2a.59.59,0,0,1-.23,0L56.3,71.52a.59.59,0,0,1-.31-.29l-6-12-6.44,12a.56.56,0,0,1-.3.27L32.72,75.86a.64.64,0,0,1-.23,0H15.6a.58.58,0,0,1-.53-.32.6.6,0,0,1,0-.62L49.48,23.14a.6.6,0,0,1,1,0L84.87,75a.62.62,0,0,1,0,.62A.6.6,0,0,1,84.37,75.91ZM67.32,74.7H83.24L50,24.56,16.72,74.7H32.37L42.6,70.48l6.89-12.82a.6.6,0,0,1,1.07,0L57,70.49Z"/><path class="cls-1" d="M84.25,75.9a.63.63,0,0,1-.51-.27L37.7,6a.62.62,0,0,1,.17-.84.61.61,0,0,1,.84.17L84.75,75a.61.61,0,0,1-.17.84A.58.58,0,0,1,84.25,75.9Z"/><path class="cls-1" d="M46.6,29.18a.6.6,0,0,1-.34-.11.59.59,0,0,1-.16-.83L61.57,5.3a.6.6,0,0,1,1,.67L47.1,28.91A.62.62,0,0,1,46.6,29.18Z"/><path class="cls-1" d="M50,24.07h0a.6.6,0,0,1-.6-.6l0-17.84A.6.6,0,0,1,50,5h0a.6.6,0,0,1,.6.61l0,17.83A.6.6,0,0,1,50,24.07Z"/><path class="cls-1" d="M65.09,46.91H34.83a.61.61,0,0,1,0-1.21H65.09a.61.61,0,0,1,0,1.21Z"/><path class="cls-1" d="M61.23,41.07H38.71a.61.61,0,0,1,0-1.21H61.23a.61.61,0,0,1,0,1.21Z"/><path class="cls-1" d="M68.22,51.81a.62.62,0,0,1-.23,0l-4.14-1.6-4.39,1.61a.67.67,0,0,1-.42,0l-4.65-1.61-4.15,1.6a.61.61,0,0,1-.8-.35.62.62,0,0,1,.35-.81l4.36-1.68a.58.58,0,0,1,.43,0l4.66,1.61,4.41-1.61a.58.58,0,0,1,.43,0l4.36,1.68a.64.64,0,0,1,.36.81A.63.63,0,0,1,68.22,51.81Z"/><path class="cls-1" d="M50,51.81a.62.62,0,0,1-.23,0l-4.14-1.6-4.39,1.61a.67.67,0,0,1-.42,0l-4.65-1.61L32,51.77a.61.61,0,0,1-.8-.35.63.63,0,0,1,.36-.81L36,48.93a.58.58,0,0,1,.43,0L41,50.53l4.41-1.61a.61.61,0,0,1,.44,0l4.35,1.68a.64.64,0,0,1,.36.81A.63.63,0,0,1,50,51.81Z"/><text class="cls-2" transform="translate(11.03 93.68)">P<tspan class="cls-3" x="8.2" y="0">r</tspan><tspan x="12.47" y="0">ofilo utente</tspan></text></svg>