<svg id="Livello_1" data-name="Livello 1" xmlns="http://www.w3.org/2000/svg" viewBox="0 0 100 100"><defs><style>.cls-1,.cls-2{fill:#68d0de;}.cls-2{font-size:13px;font-family:Roboto-Regular, Roboto;}.cls-3{letter-spacing:-0.06em;}</style></defs><title>Icona</title><path class="cls-1" d="M50.07,56.61a18.2,18.2,0,1,1,18.2-18.2A18.21,18.21,0,0,1,50.07,56.61Zm0-35.19a17,17,0,1,0,17,17A17,17,0,0,0,50.07,21.42Z"/><path class="cls-1" d="M50,64.56A25.85,25.85,0,1,1,75.86,38.71,25.87,25.87,0,0,1,50,64.56Zm0-50.49A24.65,24.65,0,1,0,74.65,38.71,24.67,24.67,0,0,0,50,14.07Z"/><path class="cls-1" d="M49.83,63.12a3.5,3.5,0,1,1,3.49-3.5A3.5,3.5,0,0,1,49.83,63.12Zm0-5.79a2.29,2.29,0,1,0,2.29,2.29A2.29,2.29,0,0,0,49.83,57.33Z"/><path class="cls-1" d="M49.83,20.69a3.5,3.5,0,1,1,3.49-3.49A3.5,3.5,0,0,1,49.83,20.69Zm0-5.78a2.29,2.29,0,1,0,2.29,2.29A2.29,2.29,0,0,0,49.83,14.91Z"/><path class="cls-1" d="M28.86,41.67a3.5,3.5,0,1,1,3.49-3.5A3.5,3.5,0,0,1,28.86,41.67Zm0-5.79a2.29,2.29,0,1,0,2.29,2.29A2.29,2.29,0,0,0,28.86,35.88Z"/><path class="cls-1" d="M71.28,41.91a3.5,3.5,0,1,1,3.49-3.5A3.5,3.5,0,0,1,71.28,41.91Zm0-5.79a2.29,2.29,0,1,0,2.29,2.29A2.3,2.3,0,0,0,71.28,36.12Z"/><path class="cls-1" d="M50,63.24a3.47,3.47,0,0,1-2.47-1L26,40.76a3.48,3.48,0,0,1,0-4.94L47.48,14.36a3.5,3.5,0,0,1,4.94,0L73.88,35.82a3.5,3.5,0,0,1,0,4.94L52.42,62.22A3.49,3.49,0,0,1,50,63.24Zm0-48.7a2.25,2.25,0,0,0-1.62.67L26.87,36.67a2.3,2.3,0,0,0,0,3.24L48.33,61.37a2.3,2.3,0,0,0,3.24,0L73,39.91a2.3,2.3,0,0,0,0-3.24L51.57,15.21A2.29,2.29,0,0,0,50,14.54Z"/><path class="cls-1" d="M49.83,74.21a3.47,3.47,0,0,1-2.47-1L15.53,41.36a3.5,3.5,0,0,1,0-4.94L47.36,4.6a3.48,3.48,0,0,1,4.94,0L84.12,36.42a3.48,3.48,0,0,1,0,4.94L52.3,73.19A3.49,3.49,0,0,1,49.83,74.21Zm0-69.43a2.25,2.25,0,0,0-1.62.67L16.38,37.27a2.3,2.3,0,0,0,0,3.24L48.21,72.34a2.3,2.3,0,0,0,3.24,0L83.27,40.51a2.3,2.3,0,0,0,0-3.24L51.45,5.45A2.29,2.29,0,0,0,49.83,4.78Z"/><text class="cls-2" transform="translate(19.86 92.68)"><tspan class="cls-3">T</tspan><tspan x="7.04" y="0">alismano</tspan></text></svg>